<?xml version="1.0" standalone="no"?>
<!DOCTYPE svg PUBLIC "-//W3C//DTD SVG 20010904//EN"
 "http://www.w3.org/TR/2001/REC-SVG-20010904/DTD/svg10.dtd">
<svg version="1.0" xmlns="http://www.w3.org/2000/svg"
 width="1000.000000pt" height="1000.000000pt" viewBox="0 0 1000.000000 1000.000000"
 preserveAspectRatio="xMidYMid meet">
<metadata>
Created by potrace 1.11, written by Peter Selinger 2001-2013
</metadata>
<g transform="translate(0.000000,1000.000000) scale(0.100000,-0.100000)"
fill="#000000" stroke="none">
<path d="M4719 9996 c-2 -2 -49 -7 -104 -10 -55 -3 -116 -8 -135 -11 -19 -2
-57 -7 -85 -10 -27 -4 -62 -8 -76 -10 -14 -3 -41 -7 -60 -9 -274 -35 -664
-134 -969 -246 -1300 -476 -2370 -1493 -2896 -2752 -14 -35 -32 -76 -39 -93
-23 -53 -105 -278 -110 -305 -1 -3 -16 -51 -33 -107 -32 -101 -96 -346 -107
-413 -3 -19 -10 -53 -15 -75 -13 -57 -47 -278 -55 -355 -4 -36 -9 -73 -11 -83
-26 -144 -26 -819 1 -1039 3 -18 7 -55 10 -83 4 -27 8 -62 10 -76 3 -14 7 -41
9 -60 11 -79 32 -201 47 -269 6 -25 13 -56 15 -70 3 -14 10 -43 15 -65 5 -22
12 -51 15 -65 3 -14 9 -38 14 -55 6 -16 23 -78 40 -136 129 -457 370 -972 652
-1389 128 -188 252 -347 449 -573 l41 -47 -21 -80 c-12 -44 -40 -135 -62 -202
-155 -473 -363 -813 -589 -963 -39 -26 -70 -47 -70 -48 0 -1 174 -2 387 -1
542 2 1230 21 1398 39 22 3 83 7 135 10 52 4 111 8 130 10 19 2 71 6 115 10
44 3 87 8 95 10 13 3 85 12 165 20 11 1 47 -9 80 -23 33 -13 69 -28 80 -32 11
-4 38 -15 60 -24 107 -42 302 -104 460 -146 17 -5 55 -15 85 -23 83 -23 377
-81 467 -93 20 -2 48 -6 62 -8 203 -32 352 -41 681 -41 254 0 454 8 517 19 10
2 45 7 78 10 33 4 71 9 85 11 14 2 45 7 70 10 44 6 236 40 275 49 314 70 542
138 800 239 82 32 114 46 255 109 258 115 662 351 851 497 25 20 59 45 74 56
82 58 291 233 384 320 226 212 421 425 579 635 40 52 76 100 80 105 59 75 223
331 306 475 45 78 193 372 221 440 15 36 35 83 45 105 10 22 21 49 25 60 5 11
16 40 25 65 83 216 175 525 216 715 30 146 49 247 59 325 3 25 8 52 10 60 2 8
7 44 10 80 4 36 8 79 10 95 26 195 26 946 0 1028 -2 6 -6 41 -9 77 -4 36 -9
81 -12 100 -7 48 -43 259 -49 290 -13 67 -39 181 -52 230 -8 30 -16 66 -19 78
-13 65 -141 453 -173 527 -5 11 -32 76 -62 145 -104 246 -215 457 -382 725
-87 140 -329 470 -377 515 -3 3 -30 34 -60 70 -172 205 -489 506 -710 675 -36
27 -69 53 -75 58 -34 28 -217 155 -314 216 -336 214 -728 401 -1091 521 -174
58 -429 128 -526 146 -14 3 -54 11 -88 19 -33 8 -77 16 -96 19 -19 2 -62 9
-95 14 -83 15 -143 22 -285 37 -36 4 -78 9 -95 12 -36 5 -681 14 -686 9z"/>
</g>
</svg>
