<svg id="Layer_1" data-name="Layer 1" xmlns="http://www.w3.org/2000/svg" viewBox="0 0 1000 1000"><defs><style>.cls-1{fill:#880e4f;}.cls-2{fill:#d81b60;}.cls-3{fill:#f2f2f2;}.cls-4{fill:#c2185b;}</style></defs><title>speak-ninja</title><g id="_Group_" data-name="&lt;Group&gt;"><path class="cls-1" d="M1000,500c0,164.2-79.6,310.2-202.2,401.4A771.65,771.65,0,0,0,836,783.6,437.81,437.81,0,0,0,940,500c0-161.4-87.4-302.7-217.4-379.3A608.64,608.64,0,0,0,632.6,18C844.1,76.2,1000,270.2,1000,500Z"/><path class="cls-1" d="M859,606.7c.3-8,.4-15.9.4-23.8,0,6.1-.1,12.2-.2,18.3C859.1,603.1,859.1,604.9,859,606.7Z"/><path class="cls-1" d="M859.2,563.7c0,1.1,0,2.3.1,3.5a6.15,6.15,0,0,0-.1-1.4Z"/><path class="cls-1" d="M859.3,567.2v1a19.27,19.27,0,0,0-.1-2.4A6.15,6.15,0,0,1,859.3,567.2Z"/><path class="cls-1" d="M859.1,560.6a14.08,14.08,0,0,0,.1,2C859.2,561.9,859.1,561.2,859.1,560.6Z"/><path class="cls-1" d="M859,606.7c.1-1.8.1-3.6.2-5.5,0,2.3-.1,4.6-.2,7A7.52,7.52,0,0,0,859,606.7Z"/><path class="cls-1" d="M858.7,548.2c.1,3,.2,6,.3,9.1C859,554.2,858.9,551.2,858.7,548.2Z"/><path class="cls-1" d="M858.8,613.3c0,2.2-.1,4.4-.2,6.6,0,.1,0,.1-.1.2C858.7,617.8,858.8,615.5,858.8,613.3Z"/><path class="cls-1" d="M858.7,548.2c-.1-1.9-.2-3.8-.2-5.7C858.6,544.4,858.7,546.3,858.7,548.2Z"/><path class="cls-1" d="M858.2,536.8l.3,5.7Z"/><path class="cls-2" d="M858.1,629.2c.2-3.1.4-6.1.4-9.1C858.5,623.1,858.3,626.2,858.1,629.2Z"/><path class="cls-1" d="M857.7,527.7c.2,2.3.3,4.6.4,6.9C857.9,532.2,857.8,529.9,857.7,527.7Z"/><path class="cls-2" d="M857.5,638.6c.3-3.1.5-6.3.6-9.4C858,632.3,857.8,635.4,857.5,638.6Z"/><path class="cls-2" d="M856.3,655.4q.9-8.4,1.2-16.8Q857.2,647,856.3,655.4Z"/><path class="cls-1" d="M857.6,526.4c-.1-2-.3-3.9-.4-5.8C857.4,522.5,857.5,524.5,857.6,526.4Z"/><path class="cls-1" d="M857.2,519.6v1c-.1-2.2-.3-4.4-.5-6.6C856.9,515.9,857,517.7,857.2,519.6Z"/><path class="cls-1" d="M856,505.1c.4,4.8.8,9.7,1.2,14.5-.2-1.9-.3-3.7-.5-5.6C856.5,511,856.3,508,856,505.1Z"/><path class="cls-2" d="M854.3,677.1c.7-5.7,1.2-11.3,1.7-17C855.5,665.8,855,671.5,854.3,677.1Z"/><path class="cls-1" d="M854.9,493.8c.4,2.9.6,5.8.9,8.7Z"/><path class="cls-1" d="M854.2,486.7c.3,2.4.5,4.7.7,7.1l.9,8.7a24.62,24.62,0,0,0,.2,2.6c.3,2.9.5,5.9.7,8.9.2,2.2.4,4.4.5,6.6.1,1.9.3,3.8.4,5.8a5.28,5.28,0,0,1,.1,1.3c.1,2.2.2,4.5.4,6.9a17,17,0,0,0,.1,2.2l.3,5.7c0,1.9.1,3.8.2,5.7.2,3,.3,6,.3,9.1,0,1,.1,2.1.1,3.3,0,.6.1,1.3.1,2v3.2a19.27,19.27,0,0,1,.1,2.4c0,4.8.1,9.7.1,14.7,0,7.9-.1,15.8-.4,23.8a7.52,7.52,0,0,1,0,1.5c0,1.6-.1,3.3-.2,5.1,0,2.2-.1,4.5-.3,6.8-36.4,58.7-100.8,98.3-174.4,99.6-1.3.1-2.6.1-3.9.1a207.77,207.77,0,0,1-90.9-20.9A198.54,198.54,0,0,1,561,682.5a149.62,149.62,0,0,0-122,0,210.45,210.45,0,0,1-119.2,37.3c-1.3,0-2.6,0-3.9-.1-103.6-1.9-191-79.8-204.2-182.8a213.68,213.68,0,0,1,0-53.8A210.21,210.21,0,0,1,319.8,300.2H680.2A208.94,208.94,0,0,1,826,359.3c2.2,2.2,4.4,4.4,6.5,6.6a22.14,22.14,0,0,1,.7,3c1.2,4.6,2.4,9.3,3.4,13.9.7,2.8,1.3,5.6,1.9,8.4.5,2.2,1,4.4,1.5,6.7,1.1,5,2.1,10,3.1,15.1.3,1.4.5,2.8.8,4.2.6,3.4,1.3,6.8,1.9,10.2,0,.3.1.6.1.8.5,2.9,1,5.7,1.5,8.6.4,2.4.8,4.8,1.2,7.3.7,4.3,1.3,8.7,1.9,13,.1.7.2,1.3.3,1.9.2,1.3.4,2.5.5,3.7.5,3.9,1,7.7,1.5,11.5.2,1.6.4,3.3.6,5,.1,1.1.2,2.3.3,3.4C853.9,484,854.1,485.3,854.2,486.7Zm-174,174c83.1,0,150.7-67.6,150.7-150.7S763.3,359.3,680.2,359.3H319.8c-75.6,0-139.9,56.4-149.5,131.3a157.42,157.42,0,0,0,0,38.8c9.6,74.8,73.9,131.3,149.5,131.3a149.85,149.85,0,0,0,61-12.9,199.12,199.12,0,0,1,28.3-16.5,207.43,207.43,0,0,1,87-20.8h7.8a207.52,207.52,0,0,1,86.8,20.6,201.84,201.84,0,0,1,28.5,16.6A148.64,148.64,0,0,0,680.2,660.7Z"/><path class="cls-2" d="M853.4,685.5c.3-2.8.7-5.6.9-8.4Z"/><path class="cls-1" d="M853.4,479.2c.1,1.1.3,2.3.4,3.4h-.1C853.6,481.5,853.5,480.3,853.4,479.2Z"/><path class="cls-1" d="M853.7,482.6h.1c.1,1.4.3,2.7.4,4.1C854.1,485.3,853.9,484,853.7,482.6Z"/><path class="cls-1" d="M851.3,462.7c.5,3.8,1,7.6,1.5,11.5C852.3,470.4,851.8,466.6,851.3,462.7Z"/><path class="cls-1" d="M850.8,459c.1,1.2.3,2.5.5,3.7C851.2,461.5,851,460.3,850.8,459Z"/><path class="cls-1" d="M850.5,457.1c.1.6.2,1.3.3,1.9C850.7,458.4,850.6,457.8,850.5,457.1Z"/><path class="cls-1" d="M848.6,444.1c.6,4.3,1.3,8.6,1.9,13C849.9,452.8,849.3,448.4,848.6,444.1Z"/><path class="cls-2" d="M846.2,734.3c1.4-7.8,2.7-15.5,3.8-23.3C848.9,718.8,847.6,726.5,846.2,734.3Z"/><path class="cls-1" d="M847.4,436.8c-.5-2.9-1-5.7-1.5-8.6C846.4,431.1,846.9,433.9,847.4,436.8Z"/><path class="cls-2" d="M842.3,754.9c1.4-6.8,2.7-13.7,3.9-20.6C845,741.2,843.7,748.1,842.3,754.9Z"/><path class="cls-1" d="M843.9,417.2c.7,3.4,1.3,6.8,1.9,10.2C845.2,424,844.5,420.6,843.9,417.2Z"/><path class="cls-1" d="M843.1,413c-1-5.1-2-10.1-3.1-15.1C841.1,402.9,842.1,408,843.1,413Z"/><path class="cls-2" d="M836,783.6c1.8-7.6,3.5-15.2,5.1-22.9C839.6,768.4,837.8,776,836,783.6Z"/><path class="cls-1" d="M859.3,567.2c-.1-1.2-.1-2.4-.1-3.5v-1.1a14.08,14.08,0,0,1-.1-2c0-1.2-.1-2.3-.1-3.3-.1-3.1-.2-6.1-.3-9.1,0-1.9-.1-3.8-.2-5.7l-.3-5.7a17,17,0,0,1-.1-2.2c-.1-2.3-.2-4.6-.4-6.9a5.28,5.28,0,0,0-.1-1.3c-.1-1.9-.2-3.9-.4-5.8v-1c-.4-4.8-.8-9.7-1.2-14.5a24.62,24.62,0,0,1-.2-2.6c-.3-2.9-.5-5.8-.9-8.7-.2-2.4-.4-4.7-.7-7.1-.1-1.4-.3-2.7-.4-4.1-.1-1.1-.3-2.3-.4-3.4-.2-1.7-.4-3.4-.6-5-.5-3.9-1-7.7-1.5-11.5-.2-1.2-.4-2.5-.5-3.7-.1-.6-.2-1.3-.3-1.9-.6-4.4-1.3-8.7-1.9-13-.4-2.5-.8-4.9-1.2-7.3-.5-2.9-1-5.7-1.5-8.6,0-.2-.1-.5-.1-.8-.6-3.4-1.2-6.8-1.9-10.2-.3-1.4-.5-2.8-.8-4.2-1-5-2-10.1-3.1-15.1-.5-2.3-1-4.5-1.5-6.7-.5-2.8-1.2-5.6-1.9-8.4-1.1-4.7-2.2-9.3-3.4-13.9a22.14,22.14,0,0,0-.7-3,208.78,208.78,0,0,1,26.1,254c.1-2.2.2-4.4.2-6.6.1-1.8.2-3.5.2-5.1.1-2.4.2-4.7.2-7,.1-6.1.2-12.2.2-18.3,0-5-.1-9.9-.1-14.7Z"/><path class="cls-1" d="M836.6,382.8c.7,2.8,1.4,5.6,1.9,8.4C837.9,388.4,837.3,385.6,836.6,382.8Z"/><path class="cls-1" d="M836.6,382.8c-1-4.6-2.2-9.3-3.4-13.9C834.4,373.5,835.5,378.1,836.6,382.8Z"/><path class="cls-3" d="M680.2,359.3c83.1,0,150.7,67.6,150.7,150.7S763.3,660.7,680.2,660.7a148.64,148.64,0,0,1-61-13,201.84,201.84,0,0,0-28.5-16.6,207.52,207.52,0,0,0-86.8-20.6h-7.8a207.43,207.43,0,0,0-87,20.8,199.12,199.12,0,0,0-28.3,16.5,149.85,149.85,0,0,1-61,12.9c-75.6,0-139.9-56.5-149.5-131.3a157.42,157.42,0,0,1,0-38.8c9.6-74.9,73.9-131.3,149.5-131.3H680.2Zm38.1,147.2A43.45,43.45,0,1,0,674.9,550,43.45,43.45,0,0,0,718.3,506.5Zm-360,0A43.45,43.45,0,1,0,314.9,550,43.45,43.45,0,0,0,358.3,506.5Z"/><path class="cls-2" d="M829.1,353c-1.1-4.1-2.2-8.1-3.4-12.1C827,344.9,828.1,349,829.1,353Z"/><path class="cls-2" d="M821.6,326.9c-1.8-6-3.7-12-5.7-17.9C817.8,314.9,819.8,320.9,821.6,326.9Z"/><path class="cls-2" d="M810.9,294.5c-1.7-4.8-3.4-9.5-5.2-14.3C807.5,284.9,809.3,289.7,810.9,294.5Z"/><path class="cls-2" d="M805.7,280.2c-1.8-4.7-3.6-9.5-5.5-14.2C802.1,270.7,804,275.4,805.7,280.2Z"/><path class="cls-2" d="M788.5,238.1q6.15,13.8,11.7,27.9Q794.65,251.9,788.5,238.1Z"/><path class="cls-2" d="M788.5,238.1l-6.3-13.8C784.4,228.8,786.5,233.5,788.5,238.1Z"/><path class="cls-2" d="M782.2,224.3c-1.8-3.8-3.6-7.5-5.4-11.3C778.7,216.7,780.5,220.5,782.2,224.3Z"/><path class="cls-2" d="M753.8,169.8l-6.9-11.7Q750.5,164,753.8,169.8Z"/><path class="cls-2" d="M746.9,158.1l-7.8-12.6C741.8,149.7,744.4,153.8,746.9,158.1Z"/><path class="cls-4" d="M739.1,145.5c-5.3-8.4-10.8-16.7-16.5-24.8C852.6,197.3,940,338.6,940,500A437.81,437.81,0,0,1,836,783.6c1.8-7.6,3.6-15.2,5.1-22.9.4-1.9.8-3.8,1.2-5.8,1.4-6.8,2.7-13.7,3.9-20.6,1.4-7.8,2.7-15.5,3.8-23.3,1.3-8.5,2.4-17,3.4-25.5l.9-8.4c.7-5.6,1.2-11.3,1.7-17,.1-1.6.3-3.1.3-4.7q.9-8.4,1.2-16.8c.3-3.2.5-6.3.6-9.4s.4-6.1.4-9.1c.1-.1.1-.1.1-.2a208.78,208.78,0,0,0-26.1-254c-1.1-4.4-2.2-8.6-3.4-12.9-1-4-2.1-8.1-3.4-12.1-1.3-4.7-2.7-9.4-4.1-14-1.8-6-3.8-12-5.7-17.9-1.6-4.9-3.3-9.7-5-14.5s-3.4-9.6-5.2-14.3-3.6-9.5-5.5-14.2q-5.55-14.1-11.7-27.9c-2-4.6-4.1-9.3-6.3-13.8-1.7-3.8-3.5-7.6-5.4-11.3q-10.8-22-23-43.2-3.3-5.85-6.9-11.7C744.4,153.8,741.8,149.7,739.1,145.5Z"/><path class="cls-2" d="M722.6,120.7c5.7,8.1,11.2,16.4,16.5,24.8l7.8,12.6,6.9,11.7Q766,191,776.8,213c1.8,3.8,3.6,7.5,5.4,11.3l6.3,13.8q6.15,13.8,11.7,27.9c1.9,4.7,3.7,9.5,5.5,14.2s3.5,9.5,5.2,14.3,3.4,9.6,5,14.5c2,5.9,3.9,11.9,5.7,17.9,1.4,4.6,2.8,9.3,4.1,14,1.2,4,2.3,8,3.4,12.1,1.2,4.3,2.3,8.5,3.4,12.9-2.1-2.2-4.3-4.4-6.5-6.6a208.94,208.94,0,0,0-145.8-59.1H319.8A210.21,210.21,0,0,0,111.7,483.1a213.68,213.68,0,0,0,0,53.8c13.2,103,100.6,180.9,204.2,182.8,1.3.1,2.6.1,3.9.1A210.45,210.45,0,0,0,439,682.5a149.62,149.62,0,0,1,122,0,198.54,198.54,0,0,0,28.3,16.4,207.77,207.77,0,0,0,90.9,20.9c1.3,0,2.6,0,3.9-.1,73.6-1.3,138-40.9,174.4-99.6,0,3-.2,6-.4,9.1s-.3,6.3-.6,9.4q-.3,8.4-1.2,16.8c0,1.6-.2,3.1-.3,4.7-.5,5.7-1,11.3-1.7,17-.2,2.8-.6,5.6-.9,8.4-1,8.5-2.1,17-3.4,25.5-1.1,7.8-2.4,15.5-3.8,23.3-1.2,6.9-2.5,13.8-3.9,20.6-.4,2-.8,3.9-1.2,5.8-1.6,7.7-3.3,15.3-5.1,22.9C755.2,879.2,634.6,940,500,940,257.4,940,60,742.6,60,500S257.4,60,500,60A437,437,0,0,1,722.6,120.7Z"/><path class="cls-1" d="M674.9,463a43.5,43.5,0,1,1-43.5,43.5A43.45,43.45,0,0,1,674.9,463Z"/><path class="cls-1" d="M500,0A496.4,496.4,0,0,1,632.6,18a608.64,608.64,0,0,1,90,102.7A437,437,0,0,0,500,60C257.4,60,60,257.4,60,500S257.4,940,500,940c134.6,0,255.2-60.8,336-156.4a771.65,771.65,0,0,1-38.2,117.8A499.28,499.28,0,0,1,304.1,960C214.6,972.9,60,970,60,970c40.1-20.1,63.5-87.1,74.5-129.3C51.2,751.4,0,631.6,0,500,0,224.3,224.3,0,500,0Z"/><path class="cls-1" d="M314.9,463a43.5,43.5,0,1,1-43.5,43.5A43.45,43.45,0,0,1,314.9,463Z"/></g></svg>